<svg xmlns="http://www.w3.org/2000/svg" viewBox="0 0 512 512">
  <!-- Background circle -->
  <circle cx="256" cy="256" r="256" fill="#F97316"/>
  <circle cx="256" cy="256" r="236" fill="#FFF7ED"/>

  <!-- Tooth body -->
  <path d="M256 100 C200 100 160 150 160 210 C160 260 170 300 190 340 C200 370 210 400 220 420 C230 440 245 445 256 445 C267 445 282 440 292 420 C302 400 312 370 322 340 C342 300 352 260 352 210 C352 150 312 100 256 100Z"
        fill="white" stroke="#F97316" stroke-width="8"/>

  <!-- Eyes -->
  <ellipse cx="220" cy="200" rx="16" ry="20" fill="#1E293B"/>
  <ellipse cx="292" cy="200" rx="16" ry="20" fill="#1E293B"/>
  <circle cx="225" cy="193" r="5" fill="white"/>
  <circle cx="297" cy="193" r="5" fill="white"/>

  <!-- Smile -->
  <path d="M218 245 Q256 290 294 245" fill="none" stroke="#F97316" stroke-width="6" stroke-linecap="round"/>

  <!-- Cheeks -->
  <ellipse cx="185" cy="235" rx="18" ry="12" fill="#FDBA74" opacity="0.6"/>
  <ellipse cx="327" cy="235" rx="18" ry="12" fill="#FDBA74" opacity="0.6"/>

  <!-- Crown/sparkle -->
  <text x="256" y="85" text-anchor="middle" font-size="40">✨</text>

  <!-- Toothbrush -->
  <rect x="340" y="280" width="12" height="80" rx="4" fill="#3B82F6" transform="rotate(-30 346 320)"/>
  <rect x="330" y="265" width="32" height="25" rx="6" fill="#60A5FA" transform="rotate(-30 346 277)"/>
  <line x1="333" y1="270" x2="337" y2="260" stroke="white" stroke-width="2" transform="rotate(-30 335 265)"/>
  <line x1="341" y1="268" x2="345" y2="258" stroke="white" stroke-width="2" transform="rotate(-30 343 263)"/>
  <line x1="349" y1="266" x2="353" y2="256" stroke="white" stroke-width="2" transform="rotate(-30 351 261)"/>
</svg>
